<?xml version="1.0" encoding="utf-8"?>
<svg version="1.1" 
  xmlns="http://www.w3.org/2000/svg" 
  xmlns:xlink="http://www.w3.org/1999/xlink" 
  viewBox="0 0 48 55" >
    <g>
        <path 
          d="M22, 1.7c-11.3, 0-20.4, 9.1-20.4, 20.4c0, 5.1, 1.9, 9.8, 5, 13.4l0, 0l0.1, 0.1c0.5, 0.6, 1.1, 1.2, 1.7, 1.7l13.5, 13.5 l13.4-13.4c4.3-3.7, 7-9.3, 7-15.4C42.4, 10.8, 33.2, 1.7, 22, 1.7" fill="white"/>
        <polygon 
          points="5.7, 33.5 12, 20.4 15.6, 28.5 23.3, 11.3 32.2, 25.8 34.2, 21.5 38.1, 28.1 34.9, 26 34.8,28.2 33.7, 26.8 32.2, 29.1 25.7, 21.7 25.2, 24.8 23.9, 22.7 22.1, 27.6 21.2, 25.5 16.8, 32.2 13.6, 29.4 13, 31.6 11.1, 28.8 9.7, 32.7 9.8, 30.3 " fill="#28AFB0"/>
    </g>
</svg>
